HIERARCHY
ROOT Hips
{
  OFFSET -0.781851 90.0698 89.5459
  CHANNELS 6 Xposition Yposition Zposition Zrotation Xrotation Yrotation
  JOINT ToSpine
  {
    OFFSET -2.69724 7.43032 -0.144315
    CHANNELS 3 Zrotation Xrotation Yrotation
    JOINT Spine
    {
      OFFSET -0.0310711 10.7595 1.96963
      CHANNELS 3 Zrotation Xrotation Yrotation
      JOINT Spine1
      {
        OFFSET 13.1342 3.43533 0.764692
        CHANNELS 3 Zrotation Xrotation Yrotation
        JOINT Neck
        {
          OFFSET 29.8703 7.82586 -0.130764
          CHANNELS 3 Zrotation Xrotation Yrotation
          JOINT Head
          {
            OFFSET 9.52751 0.295786 -0.907742
            CHANNELS 3 Zrotation Xrotation Yrotation
            End Site
            {
              OFFSET 16.4037 0.713936 2.7358
            }
          }
        }
        JOINT LeftShoulder
        {
          OFFSET 27.5574 4.95586 2.47156
          CHANNELS 3 Zrotation Xrotation Yrotation
          JOINT LeftArm
          {
            OFFSET 1.20734 -0.998971 20.1238
            CHANNELS 3 Zrotation Xrotation Yrotation
            JOINT LeftForeArm
            {
              OFFSET 26.8049 -0.0536703 -0.155908
              CHANNELS 3 Zrotation Xrotation Yrotation
              JOINT LeftHand
              {
                OFFSET 26.6817 0 0.320147
                CHANNELS 3 Zrotation Xrotation Yrotation
                End Site
                {
                  OFFSET 18.6119 0 0.382219
                }
              }
            }
          }
        }
        JOINT RightShoulder
        {
          OFFSET 27.5927 4.71444 -2.65209
          CHANNELS 3 Zrotation Xrotation Yrotation
          JOINT RightArm
          {
            OFFSET 2.83739 -1.17114 -18.7564
            CHANNELS 3 Zrotation Xrotation Yrotation
            JOINT RightForeArm
            {
              OFFSET 28.839 -0.0548439 1.22491
              CHANNELS 3 Zrotation Xrotation Yrotation
              JOINT RightHand
              {
                OFFSET 26.5114 0 -0.101894
                CHANNELS 3 Zrotation Xrotation Yrotation
                End Site
                {
                  OFFSET 18.2168 0 0
                }
              }
            }
          }
        }
      }
    }
  }
  JOINT LeftUpLeg
  {
    OFFSET -4.76168 -1.9167 -10.2353
    CHANNELS 3 Zrotation Xrotation Yrotation
    JOINT LeftLeg
    {
      OFFSET 2.55951 -42.0585 -8.02213
      CHANNELS 3 Zrotation Xrotation Yrotation
      JOINT LeftFoot
      {
        OFFSET 3.16357 -42.5282 -3.95426
        CHANNELS 3 Zrotation Xrotation Yrotation
        JOINT LeftToeBase
        {
          OFFSET 0.346054 -6.02161 12.8035
          CHANNELS 3 Zrotation Xrotation Yrotation
          End Site
          {
            OFFSET 0.134235 -1.35082 5.13018
          }
        }
      }
    }
  }
  JOINT RightUpLeg
  {
    OFFSET -4.94151 -1.41743 10.6446
    CHANNELS 3 Zrotation Xrotation Yrotation
    JOINT RightLeg
    {
      OFFSET -2.56294 -42.0364 -7.94377
      CHANNELS 3 Zrotation Xrotation Yrotation
      JOINT RightFoot
      {
        OFFSET -3.0952 -42.555 -4.02241
        CHANNELS 3 Zrotation Xrotation Yrotation
        JOINT RightToeBase
        {
          OFFSET -0.0828122 -6.13587 12.8035
          CHANNELS 3 Zrotation Xrotation Yrotation
          End Site
          {
            OFFSET -0.131328 -1.35082 5.13018
          }
        }
      }
    }
  }
}
MOTION
Frames:	15
Frame Time:	0.0333333
23.2627 90.1462 -50.8959 71.6932 -30.196 -4.74877 -70.1915 0 88.8779 88.7276 74.5686 0.463351 -0.990793 23.4832 5.2684 -140.982 41.545 161.673 -168.918 82.6487 -166.966 1.03262 -10.2844 -21.8804 -69.1357 29.3703 -126.445 22.9811 -1.67827 -93.2365 0.420957 0.000575364 0.35866 -1.40979 6.85424 35.0554 -136.66 0.556261 90.6451 14.372 -19.1401 38.0088 0.58676 0.000330655 0.0646653 -41.5666 15.2994 89.5794 -5.52186 57.0704 -8.61938 -0.0111195 -20.4623 -1.74271 4.97903 -12.425 12.347 -41.619 -19.1871 70.684 1.48242 39.3819 -1.76259 -19.8707 6.76775 3.35875 2.62224 -23.597 -6.7999 
23.4024 90.1858 -51.0844 71.5982 -30.2061 -4.98163 -70.1915 0 88.8779 87.6967 74.477 1.74684 -0.542436 23.4699 4.95907 -141.875 41.7465 162.063 -168.883 82.7454 -167.465 1.00825 -10.4899 -21.7204 -69.1877 29.33 -126.954 22.911 -1.59 -93.0438 0.420957 0.000575364 0.35866 -1.41276 6.81961 35.2141 -136.835 0.624625 90.5899 14.5762 -19.1422 38.4161 0.58676 0.000330655 0.0646653 -41.6088 14.9376 89.6707 -5.49084 57.0144 -8.52506 -0.120295 -20.6444 -1.76429 4.86852 -12.2233 12.139 -41.671 -19.3705 70.7615 1.50752 38.9719 -1.25936 -20.3594 7.28068 3.50122 2.60156 -23.9541 -7.63819 
23.6347 90.2198 -51.3203 71.6214 -30.5113 -5.42052 -70.1915 0 88.8779 86.0991 74.4938 3.3997 0.11808 23.5735 4.70136 -142.472 41.7824 162.048 -165.966 82.7209 -170.533 0.985344 -10.6981 -21.2933 -69.4511 29.2872 -127.971 22.2197 -1.43095 -92.7888 0.420957 0.000575364 0.35866 -1.41018 6.72015 35.5143 -136.714 0.44445 90.7749 14.4409 -18.9481 38.418 0.58676 0.000330655 0.0646653 -42.0069 14.5789 90.2872 -5.39205 56.8425 -8.16139 0.376157 -20.7918 -1.74841 4.66686 -11.8766 11.9749 -41.5504 -19.5766 71.6182 1.46257 38.8219 -1.51778 -19.6009 7.11842 3.3402 2.61125 -23.3249 -6.65866 
23.8388 90.2332 -51.5769 71.3399 -31.5023 -6.28945 -70.1915 0 88.8779 86.2213 74.4714 3.25306 -0.144462 23.5987 4.60137 -143.135 41.4967 162.757 -166.308 82.329 -170.489 1.0269 -10.3437 -20.8058 -69.6612 30.2219 -129.039 21.6945 -1.40332 -92.8126 0.420957 0.000575364 0.35866 -1.4553 7.06712 35.0162 -136.303 -0.803779 89.6469 14.3515 -18.6891 38.6083 0.58676 0.000330655 0.0646653 -42.6101 14.5668 91.7268 -5.34825 56.5497 -8.41283 0.433413 -20.6632 -1.7348 5.07482 -12.6154 12.6673 -40.8263 -19.4195 73.101 1.47161 38.7211 -1.40049 -19.5252 7.24978 3.33732 2.57078 -22.8348 -6.74481 
24.0778 90.3157 -51.7798 71.2569 -33.3347 -7.28713 -70.1915 0 88.8779 87.5714 74.8055 1.75083 -0.570393 23.9534 4.61397 -143.088 41.1114 162.95 -162.904 81.8778 -173.348 0.951685 -10.9996 -21.3114 -70.2454 29.3269 -129.679 19.3923 -1.26081 -93.1772 0.420957 0.000575364 0.35866 -1.50607 7.23368 35.2123 -135.16 -2.20117 88.9903 13.4071 -16.7857 39.554 0.58676 0.000330655 0.0646653 -43.9749 14.8964 93.7557 -5.17242 55.9867 -8.16107 0.308346 -21.0929 -1.777 4.88843 -12.2694 12.2508 -40.134 -18.5728 75.6711 1.36662 38.4207 -2.06863 -18.7745 7.67311 3.22756 2.61096 -22.6124 -5.38364 
24.38 90.4351 -51.9854 71.0129 -35.9461 -8.92818 -70.1915 0 88.8779 86.3687 74.6768 2.69299 -0.144053 24.1251 3.68813 -142.315 39.8205 163.304 -167.376 80.684 -168.362 0.932794 -11.1502 -21.0395 -70.2091 29.6439 -132.913 16.852 -1.01237 -90.9906 0.420957 0.000575364 0.35866 -1.60046 7.5362 35.5605 -134.363 -5.74941 87.1033 12.5726 -14.4448 41.8347 0.58676 0.000330655 0.0646653 -45.9334 14.723 96.1073 -4.80503 54.9566 -7.25168 0.532719 -21.0066 -1.75645 5.07564 -12.5523 12.1182 -39.0233 -17.8571 78.6691 1.36421 38.3941 -2.08001 -17.6778 8.29001 3.05782 2.62269 -22.2788 -4.32637 
24.6531 90.5642 -52.1282 70.2639 -38.5323 -10.302 -70.1915 0 88.8779 84.3483 74.1949 4.96915 0.338844 23.7863 3.07753 -142.05 38.2807 164.535 -167.121 79.0445 -167.703 0.707893 -12.8939 -22.5296 -69.9764 28.4833 -137.348 14.7928 1.42639 -86.2312 0.420957 0.000575364 0.35866 -1.51803 7.43144 34.7739 -133.585 -11.4696 83.7687 9.38834 -9.54274 45.0407 0.58676 0.000330655 0.0646653 -47.1846 14.5347 97.2147 -4.62677 54.3281 -6.94383 -0.149375 -21.312 -1.82326 5.06317 -12.7641 14.1838 -37.5007 -16.9935 80.5619 1.57334 38.8164 -0.39683 -17.4379 10.3189 3.15642 2.78139 -23.7807 -3.93689 
24.9618 90.4832 -52.1522 69.9354 -40.9412 -11.3876 -70.1915 0 88.8779 80.763 73.0571 7.25985 1.44616 22.3719 3.89385 -141.115 36.0339 165.559 -166.193 76.7646 -166.569 0.432955 -14.8236 -23.0021 -67.8813 26.3512 -144.792 15 3.74102 -74.8303 0.420957 0.000575364 0.35866 -1.45276 7.07191 34.9514 -135.15 -16.9595 79.3139 0.916911 -0.776684 52.613 0.58676 0.000330655 0.0646653 -48.6489 14.1186 97.9943 -4.27365 53.9231 -5.01112 -1.16149 -22.0951 -1.9612 5.23097 -12.9383 13.3847 -34.7852 -16.0433 84.306 2.23839 42.2575 2.32376 -16.3668 11.3793 2.98643 2.63711 -22.9478 -5.18286 
25.2973 90.1886 -51.9406 70.3242 -44.1607 -12.4976 -70.1915 0 88.8779 83.4368 71.4066 3.18327 1.28423 20.3765 4.02414 -140.001 32.9249 166.944 -164.707 73.5872 -165.859 0.546419 -14.9385 -20.2341 -64.0856 22.4538 -154.895 14.5071 9.65663 -56.0708 0.420957 0.000575364 0.35866 -1.64611 7.24713 37.1562 -135.536 -19.8444 75.3754 -12.6035 5.40873 66.7856 0.58676 0.000330655 0.0646653 -51.2548 13.9509 99.8137 -4.018 53.6776 -3.53923 -2.24436 -23.189 -2.15406 5.05776 -12.5896 12.6882 -32.7259 -14.4713 88.9301 3.00679 44.0814 7.69619 -17.3982 13.1752 3.35362 2.85157 -26.9383 -7.02798 
25.8223 89.821 -51.4824 70.2068 -47.1403 -13.5748 -70.1915 0 88.8779 80.833 69.978 3.40851 2.43552 18.088 6.47954 -139.18 30.0173 167.933 -158.894 70.4834 -169.652 0.425257 -17.1449 -18.1203 -61.5124 9.47791 -163.654 4.17072 11.4554 -30.0319 0.420957 0.000575364 0.35866 -1.74725 6.92278 39.6631 -137.072 -17.557 75.0087 -20.6265 2.92573 81.8525 0.58676 0.000330655 0.0646653 -53.4573 14.1677 101.559 -3.98213 53.7703 -3.1177 -2.80473 -24.7274 -2.37201 4.65054 -12.0009 13.1702 -31.6306 -12.9476 92.2087 2.80067 40.9066 8.44632 -16.807 10.3515 3.02972 2.65103 -25.9178 -8.6869 
26.5114 89.3503 -50.8564 68.8037 -49.9333 -15.7192 -70.1915 0 88.8779 72.0914 67.5681 8.63569 6.28532 14.825 10.9818 -140.193 27.062 171.93 -152.917 66.6097 -173.291 -0.0460002 -21.3482 -19.2267 -67.4882 18.8466 -159.768 -2.74957 36.1215 -13.495 0.420957 0.000575364 0.35866 -1.52595 6.52132 37.8917 -143.199 -18.82 78.247 -19.9414 -2.3357 96.4007 0.58676 0.000330655 0.0646653 -54.8571 14.1737 103.126 -3.99238 54.1538 -2.69089 -3.27132 -25.6921 -2.53066 5.07302 -12.5798 12.426 -30.5874 -11.9136 94.2033 1.61628 34.5652 5.51555 -18.3063 7.00872 3.07891 2.2356 -22.6893 -14.2843 
27.2901 88.7189 -50.0028 66.4436 -53.3856 -19.409 -70.1915 0 88.8779 69.2285 65.0349 9.82917 8.74847 11.9905 13.1284 -142.343 23.9098 176.406 -149.31 62.4148 -176.554 -0.479889 -22.4766 -21.9448 -70.3658 23.3805 -149.769 -5.8482 45.1952 -9.71754 0.420957 0.000575364 0.35866 -0.842312 4.63854 33.7471 -153.311 -26.4407 83.388 -10.3479 -3.22144 106.964 0.58676 0.000330655 0.0646653 -56.9637 13.674 105.279 -4.09584 54.0204 -3.52054 -2.51466 -25.7024 -2.45339 6.46585 -14.8599 13.3539 -28.8116 -12.9939 89.9254 -0.665297 28.1785 8.34463 -20.9894 4.56751 3.34045 2.31031 -21.1873 -12.5628 
28.0619 87.949 -48.6731 63.8646 -56.1512 -23.37 -70.1915 0 88.8779 71.0296 63.76 9.45504 8.05485 11.0261 11.535 -142.115 22.2658 176.783 -147.853 60.4151 -178.268 -1.02346 -24.2171 -24.4804 -72.769 27.7819 -141.361 -5.81661 51.9624 -6.66029 0.420957 0.000575364 0.35866 -0.411363 3.17266 29.7362 -167.279 -31.6878 86.0908 -4.42291 -2.00946 114.709 0.58676 0.000330655 0.0646653 -59.4461 12.2182 105.413 -4.37168 53.4259 -6.25967 -1.96384 -26.3975 -2.46844 7.65239 -16.7737 15.8401 -27.4883 -13.7448 86.8209 -0.976358 23.4924 13.8874 -22.3299 4.11694 3.52279 2.33761 -23.9347 -12.6902 
28.4182 87.0624 -46.8756 61.4958 -57.6862 -26.515 -70.1915 0 88.8779 72.0116 63.431 9.50173 7.11039 10.8926 10.6612 -142.003 21.1628 174.979 -143.637 58.6475 177.133 -1.58166 -26.1457 -26.2227 -72.9917 27.7611 -138.3 -8.61023 59.0919 -3.03953 0.420957 0.000575364 0.35866 -0.0178373 2.0743 21.7596 179.16 -35.3497 81.1511 -2.49402 -1.37936 119.788 0.58676 0.000330655 0.0646653 -61.8247 11.3654 104.038 -4.58661 52.4717 -9.25788 -1.37548 -25.3948 -2.30501 10.4286 -20.7448 16.2595 -26.4154 -14.0849 86.7464 -1.14794 21.4935 16.4771 -21.7779 3.40579 3.35042 2.11639 -26.5298 -16.0685 
28.3865 86.3291 -44.5906 59.7737 -57.8301 -28.7544 -70.1915 0 88.8779 70.4603 62.6862 10.5675 6.81475 10.3321 10.5853 -142.183 20.1287 173.686 -140.508 56.8534 173.294 -1.85044 -27.0961 -26.8788 -72.5592 28.4282 -137.427 -10.941 63.2072 -0.286926 0.420957 0.000575364 0.35866 0.173238 0.537909 17.766 175.947 -41.2343 81.7986 -1.21991 -0.672793 120.935 0.58676 0.000330655 0.0646653 -63.7456 11.0559 102.815 -4.67898 51.1931 -12.1479 -0.203892 -25.9378 -2.23255 10.621 -20.9423 17.8738 -25.5147 -14.9944 87.4423 -1.808 22.1855 15.5663 -18.8316 2.1219 2.7835 2.10921 -26.9638 -15.8714 
